# xmcd
#
# Track frame offsets:
#	150
#	17205
#	34535
#	48752
#	70528
#	85585
#	97811
#	111757
#	124200
#	138453
#	156969
#	173969
#	190932
#
# Disc length: 2753 seconds
#
# Revision: 1
# Processed by: cddbd v1.5.2PL0 Copyright (c) Steve Scherf et al.
# Submitted via: audiograbber 1.83.01
#
DISCID=9f0abf0d
DTITLE=Kenny Rogers - 25 Best CD 1
DYEAR=2008
DGENRE=Country
TTITLE0=You Decorated My Life
TTITLE1=Lady
TTITLE2=You Are So Beautiful
TTITLE3=Have I Told You Lately That I Love You
TTITLE4=Crazy
TTITLE5=It Had To Be You
TTITLE6=Love Me Tender
TTITLE7=Somewhere My Love
TTITLE8=You Light Up My Life
TTITLE9=My Funny Valentine
TTITLE10=When A Man Loves A Woman
TTITLE11=Stardust
TTITLE12=When I Fall In Love
EXTD=
EXTT0=
EXTT1=
EXTT2=
EXTT3=
EXTT4=
EXTT5=
EXTT6=
EXTT7=
EXTT8=
EXTT9=
EXTT10=
EXTT11=
EXTT12=
PLAYORDER=
